<svg width="24" height="25" viewBox="0 0 24 25" fill="none" xmlns="http://www.w3.org/2000/svg">
<path d="M7.53033 7.03033C7.82322 6.73744 7.82322 6.26256 7.53033 5.96967C7.23744 5.67678 6.76256 5.67678 6.46967 5.96967L4.46967 7.96967C4.17678 8.26256 4.17678 8.73744 4.46967 9.03033L6.46967 11.0303C6.76256 11.3232 7.23744 11.3232 7.53033 11.0303C7.82322 10.7374 7.82322 10.2626 7.53033 9.96967L6.81066 9.25H17C17.4142 9.25 17.75 8.91421 17.75 8.5C17.75 8.08579 17.4142 7.75 17 7.75H6.81066L7.53033 7.03033Z" fill="#000002" fill-opacity="0.4"/>
<path d="M16.4697 13.9697C16.1768 14.2626 16.1768 14.7374 16.4697 15.0303L17.1893 15.75H7C6.58579 15.75 6.25 16.0858 6.25 16.5C6.25 16.9142 6.58579 17.25 7 17.25H17.1893L16.4697 17.9697C16.1768 18.2626 16.1768 18.7374 16.4697 19.0303C16.7626 19.3232 17.2374 19.3232 17.5303 19.0303L19.5303 17.0303C19.8232 16.7374 19.8232 16.2626 19.5303 15.9697L17.5303 13.9697C17.2374 13.6768 16.7626 13.6768 16.4697 13.9697Z" fill="#000002" fill-opacity="0.4"/>
</svg>
