<svg width="284" height="58" viewBox="0 0 284 58" fill="none" xmlns="http://www.w3.org/2000/svg">
<g clip-path="url(#clip0_337_755)">
<path d="M17.1527 24.4519L28.2015 13.3829L39.2561 24.4577L45.6851 18.0167L28.2015 0.5L10.7238 18.0109L17.1527 24.4519Z" fill="#95A8B6"/>
<path d="M12.6119 28.9993L6.18307 22.5583L-0.246094 28.9995L6.18275 35.4404L12.6119 28.9993Z" fill="#95A8B6"/>
<path d="M17.152 33.5479L28.2008 44.6169L39.255 33.5425L45.6876 39.9799L45.6844 39.9835L28.2008 57.4998L10.7226 39.9893L10.7136 39.9803L17.152 33.5479Z" fill="#95A8B6"/>
<path d="M50.2193 35.4434L56.6485 29.0022L50.2196 22.5613L43.7905 29.0025L50.2193 35.4434Z" fill="#95A8B6"/>
<path d="M34.7222 28.9965H34.7249L28.2011 22.4604L23.38 27.2906H23.3795L22.8259 27.8457L21.6832 28.9907L21.6742 28.9996L21.6832 29.0091L28.2011 35.5392L34.7249 29.0033L34.728 28.9996L34.7222 28.9965Z" fill="#95A8B6"/>
<path d="M66.6704 14.3118H80.6531C84.1235 14.3118 86.7477 15.2041 88.5263 16.9886C89.9027 18.3708 90.5906 20.0838 90.5906 22.1272V22.2136C90.5906 23.0771 90.4841 23.8402 90.2698 24.502C90.0559 25.1647 89.7701 25.7612 89.4129 26.2938C89.0565 26.8268 88.6422 27.2946 88.1713 27.697C87.6999 28.1004 87.1935 28.4462 86.6511 28.7334C88.3955 29.3961 89.7688 30.2951 90.7699 31.4323C91.7706 32.57 92.2717 34.1461 92.2717 36.1608V36.2468C92.2717 37.6289 92.0066 38.8376 91.4759 39.8745C90.9452 40.9104 90.1849 41.7743 89.1949 42.4653C88.205 43.1564 87.0146 43.6741 85.6234 44.0199C84.2322 44.3652 82.6905 44.5376 80.9986 44.5376H66.6704V14.3118ZM79.2551 26.5315C80.7209 26.5315 81.8848 26.2803 82.7462 25.7761C83.6081 25.2723 84.039 24.4588 84.039 23.3364V23.25C84.039 22.2429 83.6651 21.4731 82.9183 20.94C82.171 20.4074 81.0935 20.1409 79.6861 20.1409H73.1349V26.5315H79.2551ZM81.0225 38.7089C82.4878 38.7089 83.6364 38.4433 84.4704 37.9102C85.3035 37.3777 85.7205 36.5497 85.7205 35.4269V35.341C85.7205 34.3334 85.3322 33.5348 84.5567 32.9441C83.7806 32.3548 82.531 32.0595 80.8068 32.0595H73.1349V38.7093H81.0225V38.7089Z" fill="#95A8B6"/>
<path d="M100.6 14.3118H107.238V44.5385H100.6V14.3118Z" fill="#95A8B6"/>
<path d="M117.291 14.3118H123.411L137.548 32.9229V14.3118H144.099V44.5385H138.453L123.842 25.3232V44.5385H117.291V14.3118Z" fill="#95A8B6"/>
<path d="M164.194 14.0959H170.314L183.245 44.5383H176.305L173.547 37.7592H160.789L158.031 44.5383H151.263L164.194 14.0959ZM171.176 31.886L167.167 22.0843L163.16 31.886H171.176Z" fill="#95A8B6"/>
<path d="M190.41 14.3118H196.53L210.667 32.9229V14.3118H217.218V44.5385H211.572L196.961 25.3232V44.5385H190.41V14.3118Z" fill="#95A8B6"/>
<path d="M241.107 45.0558C238.893 45.0558 236.84 44.6525 234.943 43.8471C233.046 43.0417 231.409 41.94 230.029 40.5435C228.65 39.1475 227.572 37.4993 226.797 35.5994C226.021 33.6992 225.633 31.6697 225.633 29.5105V29.4245C225.633 27.2654 226.021 25.2435 226.797 23.3577C227.572 21.4722 228.65 19.8169 230.029 18.392C231.408 16.9671 233.061 15.8439 234.985 15.0236C236.91 14.2033 239.038 13.7932 241.365 13.7932C242.772 13.7932 244.058 13.9089 245.221 14.1385C246.385 14.3695 247.441 14.6855 248.39 15.0884C249.338 15.4918 250.214 15.9812 251.019 16.5565C251.822 17.1328 252.57 17.7658 253.26 18.4568L249.037 23.3361C247.857 22.2713 246.658 21.4358 245.438 20.8316C244.216 20.2274 242.844 19.9249 241.321 19.9249C240.057 19.9249 238.886 20.1698 237.809 20.6592C236.732 21.1485 235.805 21.8247 235.029 22.6882C234.253 23.5517 233.65 24.5525 233.218 25.6892C232.788 26.8269 232.573 28.0429 232.573 29.3381V29.4241C232.573 30.7193 232.788 31.9434 233.218 33.0941C233.65 34.2461 234.245 35.2532 235.007 36.1167C235.768 36.9802 236.688 37.6645 237.765 38.1683C238.844 38.6725 240.029 38.9237 241.321 38.9237C243.046 38.9237 244.503 38.6072 245.695 37.9738C246.888 37.3413 248.074 36.4773 249.252 35.3829L253.476 39.658C252.7 40.4931 251.894 41.2418 251.062 41.9031C250.229 42.5658 249.316 43.134 248.325 43.6094C247.334 44.0839 246.248 44.4445 245.071 44.6885C243.892 44.9329 242.571 45.0558 241.107 45.0558Z" fill="#95A8B6"/>
<path d="M261.285 14.3118H283.999V20.2278H267.837V26.3595H282.06V32.2751H267.837V38.6229H284.216V44.5385H261.285V14.3118Z" fill="#95A8B6"/>
</g>
<defs>
<clipPath id="clip0_337_755">
<rect width="284" height="57" fill="white" transform="translate(0 0.5)"/>
</clipPath>
</defs>
</svg>
