<svg width="300" height="32" viewBox="0 0 300 32" fill="none" xmlns="http://www.w3.org/2000/svg">
<g clip-path="url(#clip0_337_769)">
<path fill-rule="evenodd" clip-rule="evenodd" d="M187.393 5.17199C187.361 4.63249 187.493 4.09594 187.77 3.63155C188.048 3.16716 188.459 2.79625 188.95 2.56666C189.318 2.39419 189.721 2.30628 190.127 2.30941C190.534 2.31254 190.935 2.40664 191.3 2.58475C191.665 2.76286 191.985 3.02043 192.237 3.3384C192.489 3.65637 192.666 4.02662 192.754 4.42176C192.843 4.81691 192.841 5.22684 192.749 5.62124C192.657 6.01564 192.478 6.38443 192.223 6.70033C191.969 7.01623 191.647 7.27116 191.28 7.44627C190.913 7.62138 190.512 7.71219 190.105 7.71199C189.584 7.72754 189.071 7.58919 188.629 7.31439C188.187 7.03959 187.837 6.64067 187.623 6.16799C187.482 5.85422 187.403 5.51581 187.393 5.17199ZM187.594 10.032H192.596V28.032H187.594V10.032ZM53.8393 4.03199H44.1964V28.032H54.5223C59.9263 28.032 62.8192 25.212 62.8192 21.392C62.8902 19.9203 62.3715 18.4807 61.3771 17.3894C60.3827 16.2982 58.9938 15.6445 57.5156 15.572V15.332C58.7467 15.1433 59.8672 14.5162 60.6689 13.5672C61.4707 12.6182 61.8992 11.4118 61.875 10.172C61.875 6.59199 59.1629 4.03199 53.8393 4.03199ZM56.712 10.992C56.712 12.892 55.0848 14.032 53.0759 14.032L49.2187 14.092V8.09199H53.1562C55.4263 8.09199 56.712 9.09199 56.712 10.992ZM57.4553 20.852C57.4553 22.652 56.2902 23.832 53.4375 23.832H49.2187V17.472H53.4375C53.9294 17.4014 54.4308 17.4354 54.9086 17.5717C55.3864 17.7081 55.8297 17.9437 56.2094 18.2631C56.589 18.5825 56.8964 18.9783 57.1111 19.4246C57.3259 19.8708 57.4432 20.3573 57.4553 20.852ZM65.2902 28.032H70.3728L70.2924 4.03199H65.2902V28.032ZM73.0044 19.092C73.0044 13.512 76.4196 9.79199 81.904 9.79199C87.3884 9.79199 90.8036 13.512 90.8036 19.092C90.8036 24.672 87.3884 28.372 81.904 28.372C76.4196 28.372 73.0044 24.652 73.0044 19.092ZM85.7009 19.0813C85.6982 15.948 84.3924 13.632 81.9241 13.632C79.4531 13.632 78.087 15.952 78.087 19.092C78.087 22.232 79.3928 24.532 81.9241 24.532C84.4527 24.532 85.6982 22.2173 85.7009 19.0813ZM101.571 9.79199C96.087 9.79199 92.692 13.572 92.692 19.092C92.692 24.572 96.0268 28.372 101.571 28.372C106.333 28.372 109.366 25.572 109.607 21.432H104.866C104.814 22.256 104.445 23.0283 103.835 23.5874C103.224 24.1464 102.421 24.4491 101.592 24.432C99.2411 24.432 97.7344 22.372 97.7344 19.032C97.7344 15.692 99.2612 13.692 101.592 13.692C102.421 13.6749 103.224 13.9775 103.835 14.5366C104.445 15.0957 104.814 15.868 104.866 16.692H109.607C109.446 12.532 106.292 9.79199 101.571 9.79199ZM112.239 4.03199H117.261V16.852H117.522L123.328 10.032H129.074L122.364 17.832L129.415 28.032H123.549L118.607 20.772L117.261 22.312V28.032H112.239V4.03199ZM138.275 9.79199C132.79 9.79199 129.395 13.572 129.395 19.092C129.395 24.572 132.73 28.372 138.315 28.372C143.096 28.372 146.109 25.572 146.35 21.432H141.629C141.573 22.2579 141.199 23.0304 140.586 23.5891C139.972 24.1478 139.166 24.4497 138.335 24.432C135.984 24.432 134.478 22.372 134.478 19.032C134.478 15.692 136.004 13.692 138.335 13.692C139.166 13.6753 139.971 13.9775 140.585 14.536C141.198 15.0945 141.572 15.8665 141.629 16.692H146.31C146.17 12.532 142.996 9.79199 138.275 9.79199ZM153.964 28.032H148.962V4.03199H153.824V13.212H154.045C154.453 12.1367 155.2 11.2221 156.174 10.6055C157.149 9.98886 158.298 9.70342 159.449 9.79199C163.205 9.79199 165.696 12.352 165.696 16.572V28.032H160.674V17.452C160.74 17.0029 160.705 16.5448 160.571 16.1108C160.437 15.6769 160.209 15.2779 159.901 14.9427C159.594 14.6073 159.215 14.3444 158.793 14.1731C158.371 14.0017 157.915 13.9262 157.46 13.952C156.734 13.9235 156.018 14.1286 155.419 14.5369C154.819 14.9452 154.368 15.5349 154.132 16.2187C153.975 16.6724 153.918 17.1544 153.964 17.632V28.032ZM174.937 17.452C171.362 17.792 168.147 19.012 168.147 23.012C168.147 26.572 170.699 28.372 174.154 28.372C175.216 28.4535 176.278 28.229 177.215 27.7254C178.152 27.2218 178.924 26.4603 179.437 25.532H179.578V28.032H184.339V15.872C184.339 11.572 180.683 9.77199 176.665 9.77199C172.326 9.77199 169.493 11.832 168.79 15.112L173.431 15.492C173.656 14.8427 174.098 14.2899 174.683 13.9259C175.268 13.5618 175.96 13.4087 176.645 13.492C178.353 13.492 179.317 14.352 179.317 15.832C179.317 17.012 178.092 17.152 174.937 17.452ZM179.357 19.592V21.592C179.329 22.052 179.209 22.5018 179.004 22.915C178.799 23.3282 178.513 23.6967 178.164 23.9987C177.814 24.3008 177.407 24.5302 176.967 24.6734C176.527 24.8165 176.062 24.8704 175.6 24.832C174.054 24.832 172.949 24.132 172.949 22.732C172.949 21.332 174.114 20.632 175.882 20.392C177.073 20.2948 178.244 20.0253 179.357 19.592ZM195.871 28.032H200.973L200.893 17.632C200.837 17.1592 200.885 16.6799 201.033 16.2272C201.18 15.7745 201.425 15.359 201.75 15.0093C202.074 14.6597 202.471 14.3841 202.912 14.2016C203.354 14.0191 203.83 13.9339 204.308 13.952C204.762 13.93 205.216 14.0081 205.637 14.1806C206.057 14.3531 206.434 14.6159 206.741 14.9501C207.048 15.2843 207.277 15.6818 207.412 16.1142C207.547 16.5467 207.585 17.0034 207.522 17.452V28.032H212.545V16.572C212.545 12.372 210.074 9.79199 206.297 9.79199C205.144 9.72151 203.998 10.0138 203.021 10.6276C202.044 11.2414 201.285 12.1455 200.853 13.212H200.652V10.032H195.871V28.032Z" fill="#95A8B6"/>
<path opacity="0.6" fill-rule="evenodd" clip-rule="evenodd" d="M267.791 10.0322H263.009L262.989 28.0322H268.012V17.2322C267.95 16.6103 268.083 15.9847 268.393 15.4413C268.703 14.8979 269.174 14.4634 269.742 14.1975C270.119 14.021 270.528 13.9239 270.945 13.9122C271.517 13.887 272.082 14.0475 272.555 14.3694C273.029 14.6913 273.384 15.1573 273.568 15.6975C273.69 16.0548 273.734 16.4362 273.697 16.8122V28.0322H278.558V17.0322C278.515 16.6306 278.558 16.2243 278.686 15.8409C278.814 15.4576 279.023 15.106 279.3 14.8102C279.576 14.5143 279.913 14.281 280.287 14.126C280.662 13.9711 281.066 13.8982 281.471 13.9122C281.862 13.8948 282.252 13.9624 282.613 14.1102C282.975 14.2579 283.3 14.4824 283.566 14.7679C283.832 15.0534 284.032 15.3931 284.152 15.7634C284.273 16.1337 284.311 16.5257 284.264 16.9122V28.0322H289.286V16.0322C289.324 14.712 288.91 13.4183 288.111 12.3635C287.313 11.3086 286.178 10.5554 284.893 10.2274C283.608 9.89943 282.249 10.0162 281.04 10.5586C279.83 11.101 278.842 12.0367 278.237 13.2122H277.956C277.651 12.1683 276.997 11.2597 276.101 10.6375C275.206 10.0153 274.123 9.71698 273.034 9.79216C271.937 9.74279 270.855 10.0497 269.949 10.6666C269.043 11.2835 268.363 12.1769 268.012 13.2122H267.791V10.0322ZM232.634 9.79216C227.15 9.79216 223.775 13.5722 223.775 19.0922C223.775 24.5722 227.09 28.3722 232.735 28.3722C237.516 28.3722 240.55 25.5722 240.771 21.4322H236.05C235.993 22.2581 235.62 23.0306 235.006 23.5893C234.392 24.148 233.586 24.4498 232.755 24.4322C230.425 24.4322 228.898 22.3722 228.898 19.0322C228.898 15.6922 230.425 13.6922 232.755 13.6922C233.586 13.6755 234.392 13.9777 235.005 14.5362C235.618 15.0947 235.992 15.8666 236.05 16.6922H240.67C240.529 12.5322 237.355 9.79216 232.634 9.79216ZM216.791 23.5455C216.397 23.9368 216.128 24.4356 216.019 24.9789C215.909 25.5221 215.964 26.0855 216.176 26.5977C216.388 27.1099 216.748 27.5481 217.21 27.8568C217.673 28.1655 218.216 28.3309 218.773 28.3322C219.235 28.3321 219.69 28.2187 220.097 28.002C220.505 27.7853 220.853 27.4719 221.11 27.0896C221.367 26.7073 221.525 26.2678 221.571 25.81C221.617 25.3523 221.549 24.8903 221.373 24.465C221.197 24.0397 220.918 23.6641 220.561 23.3715C220.205 23.0789 219.781 22.8783 219.328 22.7874C218.875 22.6965 218.407 22.7181 217.964 22.8503C217.522 22.9825 217.119 23.2213 216.791 23.5455ZM242.599 19.0922C242.599 13.5122 246.014 9.79216 251.498 9.79216C256.983 9.79216 260.378 13.5122 260.378 19.0922C260.378 24.6722 256.983 28.3722 251.498 28.3722C246.014 28.3722 242.599 24.6522 242.599 19.0922ZM255.295 19.0828C255.292 15.9468 253.987 13.6322 251.518 13.6322C249.047 13.6322 247.681 15.9522 247.681 19.0922C247.681 22.2322 248.987 24.5322 251.518 24.5322C254.047 24.5322 255.292 22.2175 255.295 19.0828Z" fill="#95A8B6"/>
<path d="M2.75077 11.6294L1.28425 13.0894C0.878346 13.4776 0.555404 13.9434 0.334802 14.4589C0.114201 14.9745 0.000488281 15.529 0.000488281 16.0894C0.000488281 16.6497 0.114201 17.2043 0.334802 17.7198C0.555404 18.2354 0.878346 18.7012 1.28425 19.0894L13.0981 30.9681C13.3793 31.2534 13.7034 31.4894 14.0624 31.6681V17.2694L2.75077 11.6294Z" fill="#95A8B6"/>
<path d="M29.3934 11.6294L30.8599 13.0894C31.2658 13.4776 31.5888 13.9434 31.8094 14.4589C32.03 14.9745 32.1437 15.529 32.1437 16.0894C32.1437 16.6497 32.03 17.2043 31.8094 17.7198C31.5888 18.2354 31.2658 18.7012 30.8599 19.0894L19.0447 30.9681C18.7635 31.2534 18.4394 31.4894 18.0804 31.6681V17.2694L29.3934 11.6294Z" fill="#95A8B6"/>
<path d="M26.5555 8.64936L19.1626 1.26935C18.7713 0.867598 18.303 0.548178 17.7854 0.330045C17.2677 0.111912 16.7113 -0.000488281 16.1492 -0.000488281C15.5871 -0.000488281 15.0308 0.111912 14.5131 0.330045C13.9955 0.548178 13.5271 0.867598 13.1358 1.26935L5.7229 8.64936L16.1091 13.8094L26.5555 8.64936Z" fill="#95A8B6"/>
</g>
<defs>
<clipPath id="clip0_337_769">
<rect width="300" height="32" fill="white"/>
</clipPath>
</defs>
</svg>
