<svg width="284" height="60" viewBox="0 0 284 60" fill="none" xmlns="http://www.w3.org/2000/svg">
<path d="M35.3974 36.3908C35.3974 38.6667 35.0793 40.4828 34.4659 41.8391C33.8525 43.1954 33.0345 44.2299 32.0576 44.9196C31.0806 45.6322 29.9901 46.092 28.7859 46.3219C27.5817 46.5517 26.4003 46.6667 25.2416 46.6667H13.7225V13.5862H26.4003C28.0361 13.5862 29.3539 13.8621 30.399 14.4138C31.4441 14.9655 32.2621 15.6782 32.8755 16.5747C33.4889 17.4713 33.8979 18.4598 34.1251 19.5402C34.3523 20.6207 34.4432 21.7012 34.4205 22.7357C34.375 25.7471 33.6253 27.7931 32.1712 28.8736C33.1254 29.3334 33.8979 30.1609 34.5113 31.3563C35.102 32.5747 35.3974 34.2529 35.3974 36.3908ZM28.3088 22.8506C28.3088 21.8161 28.1952 21.0345 27.9453 20.5288C27.6953 20.023 27.2182 19.7701 26.4912 19.7701H19.9251V26.3678H25.9005C26.832 26.3678 27.4454 26.046 27.7862 25.4253C28.127 24.7816 28.3088 23.9081 28.3088 22.8506ZM29.1721 36.4368C29.1721 35.5173 29.104 34.7816 28.9449 34.2529C28.8086 33.7242 28.6041 33.2874 28.3769 32.9885C28.1497 32.6897 27.8998 32.4828 27.6045 32.3908C27.3318 32.2989 27.0592 32.2529 26.7865 32.2529H19.9251V40.1839H26.264C27.3545 40.1839 28.127 39.8851 28.536 39.3104C28.9677 38.7127 29.1721 37.7701 29.1721 36.4368ZM60.2531 46.6667H39.487V13.5862H59.8896V20H45.6669V26.092H58.7536V32.5058H45.6669V40.2069H60.2531V46.6667ZM84.2908 36.8966C84.2908 43.8621 80.5875 47.3563 73.1808 47.3563C69.591 47.3563 66.8419 46.3219 64.9561 44.2759C63.0704 42.2069 62.1388 39.0345 62.1388 34.7357H68.1596C68.2051 35.6782 68.3187 36.5747 68.4777 37.3563C68.6368 38.1609 68.9321 38.8276 69.3411 39.4023C69.7501 39.977 70.2726 40.4138 70.9315 40.7356C71.5904 41.0575 72.431 41.2184 73.4534 41.2184C75.1347 41.2184 76.3388 40.8966 77.0886 40.2759C77.8384 39.6552 78.2246 38.4138 78.2246 36.6207C78.2246 35.6782 78.0656 34.9885 77.7702 34.5747C77.4748 34.1609 76.9977 33.8391 76.3616 33.5862C75.6345 33.3104 74.7484 33.1035 73.726 32.9425C72.7036 32.7816 71.5222 32.5288 70.2044 32.1609C69.182 31.8621 68.2278 31.5173 67.3644 31.1265C66.5011 30.7356 65.7286 30.2069 65.0697 29.4943C64.4108 28.7816 63.911 27.8621 63.5475 26.7357C63.184 25.6092 63.0022 24.115 63.0022 22.2759C63.0022 20.9196 63.1612 19.7471 63.502 18.7586C63.8201 17.7701 64.2745 16.9196 64.8198 16.2299C65.3651 15.5402 66.0013 14.9885 66.7056 14.5517C67.4326 14.115 68.1596 13.7931 68.9094 13.5632C69.6592 13.3334 70.4089 13.1724 71.1587 13.1035C71.9085 13.0345 72.6128 12.9885 73.2262 12.9885C75.3619 12.9885 77.1113 13.3334 78.4291 14C79.7696 14.6667 80.792 15.5632 81.5417 16.6207C82.2915 17.7012 82.7913 18.9196 83.0412 20.2529C83.2912 21.6092 83.4275 22.9425 83.4275 24.2529H77.5203C77.4294 23.7012 77.3613 23.0805 77.2931 22.4138C77.2477 21.7471 77.0886 21.1494 76.8614 20.6667C76.6569 20.2299 76.3161 19.8391 75.7936 19.4943C75.271 19.1494 74.4531 18.9655 73.3398 18.9655C72.4764 18.9655 71.7494 19.0345 71.1814 19.1954C70.6134 19.3563 70.1817 19.5862 69.8636 19.8851C69.5456 20.1839 69.3184 20.5977 69.2048 21.0805C69.0912 21.5632 69.023 22.1609 69.023 22.8276C69.023 23.6322 69.2048 24.2069 69.5456 24.5517C69.8864 24.8966 70.5453 25.1954 71.4995 25.4483C72.4992 25.7242 73.4988 25.954 74.5212 26.1379C75.5436 26.3219 76.5206 26.5517 77.4748 26.8046C78.4291 27.0575 79.3152 27.4023 80.1331 27.8391C80.951 28.2759 81.678 28.8506 82.2915 29.6092C82.9049 30.3678 83.4048 31.3334 83.7456 32.5058C84.1318 33.6782 84.2908 35.1494 84.2908 36.8966ZM106.852 19.977H99.3769V46.6667H93.1744V19.977H85.6995V13.5862H106.829V19.977H106.852Z" fill="#95A8B6"/>
<path fill-rule="evenodd" clip-rule="evenodd" d="M115.872 60H277.093C280.91 60 284 56.8736 284 53.0345V6.98851C284 3.12644 280.91 0 277.093 0H115.872V60ZM146.044 39.4254C146.498 37.8622 146.794 36.23 146.93 34.5059V34.4829H140.932C140.727 35.4714 140.546 36.345 140.341 37.1266C140.159 37.9082 139.887 38.5748 139.546 39.1496C139.205 39.7243 138.751 40.1611 138.16 40.4599C137.569 40.7588 136.797 40.9197 135.797 40.9197C134.82 40.9197 133.957 40.7817 133.162 40.5059C132.367 40.23 131.708 39.7243 131.162 38.9657C130.617 38.23 130.185 37.1725 129.89 35.8392C129.595 34.4829 129.436 32.7588 129.436 30.5978C129.436 28.4599 129.527 26.6668 129.754 25.2185C129.981 23.7703 130.344 22.5978 130.844 21.7013C131.344 20.8047 132.026 20.1611 132.844 19.7703C133.662 19.3794 134.684 19.1726 135.888 19.1726C136.888 19.1726 137.683 19.3105 138.274 19.6093C138.864 19.9082 139.342 20.299 139.682 20.7817C140.023 21.2645 140.296 21.8622 140.455 22.5289C140.637 23.1955 140.796 23.9082 140.932 24.6438H146.794C146.635 23.2415 146.385 21.8162 146.021 20.4139C145.658 19.0116 145.067 17.7473 144.249 16.6438C143.408 15.5404 142.318 14.6438 140.932 13.9542C139.546 13.2645 137.774 12.9197 135.593 12.9197C133.434 12.9197 131.571 13.3105 130.004 14.0921C128.459 14.8737 127.164 16.0001 126.141 17.4484C125.119 18.9197 124.369 20.6898 123.892 22.7588C123.415 24.8277 123.165 27.1725 123.165 29.7473C123.165 32.5519 123.392 35.0346 123.847 37.2185C124.278 39.4024 125.005 41.2415 125.982 42.7358C126.982 44.207 128.254 45.3565 129.845 46.1381C131.435 46.9197 133.366 47.3105 135.638 47.3105C137.615 47.3105 139.296 46.9657 140.682 46.276C142.068 45.5863 143.204 44.6668 144.067 43.4944C144.931 42.345 145.59 40.9886 146.044 39.4254ZM165.629 46.6668H171.808V13.5863H165.629V25.9312H156.313V13.5863H150.134V46.6668H156.313V32.3909H165.629V46.6668ZM191.393 46.6668H197.868L188.621 13.5863H182.487L173.535 46.6668H179.783L181.464 39.8392H189.689L191.393 46.6668ZM185.6 23.0346L188.144 33.6783H182.987L185.6 23.0346ZM206.57 26.5289L216.022 46.6668H222.111V13.5863H215.976V33.5863L206.456 13.5863H200.39V46.6668H206.57V26.5289ZM244.967 46.6668H249.988H250.033V28.5519H237.992V34.6438H243.808C243.831 35.7243 243.717 36.6438 243.445 37.4024C243.172 38.1611 242.786 38.8047 242.309 39.2875C241.832 39.7702 241.264 40.1381 240.605 40.368C239.946 40.5978 239.264 40.7128 238.537 40.7128C237.265 40.7128 236.22 40.5059 235.402 40.0921C234.584 39.6783 233.925 39.0346 233.425 38.1381C232.925 37.2645 232.584 36.0921 232.38 34.6438C232.176 33.1955 232.085 31.4484 232.085 29.4254C232.085 27.5863 232.198 26.0001 232.425 24.6898C232.653 23.3794 233.016 22.299 233.516 21.4714C234.016 20.6438 234.652 20.0461 235.447 19.6553C236.22 19.2645 237.197 19.0806 238.333 19.0806C239.469 19.0806 240.355 19.2645 241.014 19.6093C241.673 19.9542 242.172 20.4139 242.49 20.9657C242.809 21.5174 243.013 22.1381 243.104 22.8507C243.195 23.5634 243.24 24.253 243.24 24.9197H249.556C249.556 23.4024 249.352 21.9082 248.966 20.4599C248.579 19.0346 247.943 17.7473 247.057 16.6208C246.171 15.5174 245.012 14.5978 243.581 13.9312C242.15 13.2645 240.423 12.9197 238.355 12.9197C230.017 12.9197 225.859 18.5289 225.859 29.7473C225.859 32.207 226.064 34.5059 226.45 36.6438C226.836 38.7817 227.495 40.6438 228.427 42.207C229.358 43.7703 230.585 44.9886 232.107 45.8852C233.63 46.7817 235.538 47.2185 237.81 47.2185C238.469 47.2185 239.151 47.1725 239.832 47.0576C240.514 46.9427 241.195 46.7588 241.832 46.4599C242.468 46.1611 243.058 45.7702 243.604 45.2645C244.149 44.7588 244.603 44.1151 244.967 43.3105V46.6668ZM253.873 46.6668H274.594V40.207H260.053V32.5059H273.094V26.0921H260.053V20.0001H274.23V13.5863H253.873V46.6668Z" fill="#95A8B6"/>
</svg>
