<svg width="16" height="16" viewBox="0 0 16 16" fill="none" xmlns="http://www.w3.org/2000/svg">
<path fill-rule="evenodd" clip-rule="evenodd" d="M9.59002 10.2971C7.82317 11.7122 5.23688 11.6009 3.59903 9.96302C1.84167 8.20566 1.84167 5.35642 3.59903 3.59906C5.35638 1.8417 8.20563 1.8417 9.96299 3.59906C11.6008 5.23691 11.7122 7.82319 10.2971 9.59004L13.7342 13.0271C13.9295 13.2224 13.9295 13.539 13.7342 13.7342C13.5389 13.9295 13.2224 13.9295 13.0271 13.7342L9.59002 10.2971ZM4.30613 9.25591C2.9393 7.88907 2.9393 5.673 4.30613 4.30616C5.67297 2.93933 7.88904 2.93933 9.25588 4.30616C10.6217 5.67199 10.6227 7.88582 9.25889 9.2529C9.25788 9.25389 9.25687 9.25489 9.25587 9.25589C9.25487 9.2569 9.25387 9.2579 9.25287 9.25891C7.8858 10.6227 5.67197 10.6217 4.30613 9.25591Z" fill="#000002" fill-opacity="0.4"/>
</svg>
